<?xml version="1.0" encoding="UTF-8"?>
<svg version="1.1" xmlns="http://www.w3.org/2000/svg" width="500" height="500">
<path d="M0 0 C10.23 0 20.46 0 31 0 C30.17445586 4.12772068 29.47418684 6.37804511 27.578125 9.953125 C27.05710205 10.94538086 26.5360791 11.93763672 25.99926758 12.95996094 C25.42200928 14.04567383 24.84475098 15.13138672 24.25 16.25 C22.98709189 18.65563599 21.72544412 21.06190643 20.46484375 23.46875 C20.12188766 24.12204285 19.77893158 24.77533569 19.42558289 25.44842529 C14.97474563 33.93482088 10.60058887 42.46067791 6.22912598 50.98815918 C4.82914567 53.71754775 3.42588478 56.44523241 2.02246094 59.17285156 C1.14629319 60.88076131 0.2703085 62.58876498 -0.60546875 64.296875 C-1.00495224 65.07196411 -1.40443573 65.84705322 -1.81602478 66.64562988 C-2.89517704 68.75539579 -3.951329 70.87495348 -5 73 C-5.32134918 73.62185181 -5.64269836 74.24370361 -5.9737854 74.88439941 C-8.01426882 79.10197067 -8.01002221 81.49873111 -7 86 C-6.38569687 87.74246381 -5.71011548 89.4642907 -4.98144531 91.16210938 C-4.56256042 92.1469632 -4.14367554 93.13181702 -3.71209717 94.14651489 C-3.25538635 95.20160248 -2.79867554 96.25669006 -2.328125 97.34375 C-1.85385071 98.45354218 -1.37957642 99.56333435 -0.89093018 100.70675659 C0.38623019 103.69155774 1.66919018 106.67377647 2.95504761 109.65483856 C4.28258368 112.73617826 5.60273708 115.82067821 6.92382812 118.90478516 C9.93958259 125.94068129 12.96850998 132.97087196 16 140 C16.74938595 141.73924187 17.49873881 143.478498 18.24804688 145.21777344 C24.71195294 160.24471037 24.71195294 160.24471037 31.33203125 175.203125 C31.67363281 175.96705566 32.01523437 176.73098633 32.3671875 177.51806641 C33.21300479 179.40324285 34.0687381 181.283963 34.92578125 183.1640625 C36 186 36 186 36 190 C32.23672801 191.254424 28.70996327 191.16236159 24.7890625 191.16796875 C23.98391205 191.17129715 23.1787616 191.17462555 22.34921265 191.17805481 C20.6462257 191.18311568 18.94322884 191.18546339 17.24023438 191.18530273 C14.64175969 191.18748592 12.0437119 191.20564116 9.4453125 191.22460938 C7.78906395 191.22754417 6.13281338 191.22952839 4.4765625 191.23046875 C3.31539413 191.24124702 3.31539413 191.24124702 2.13076782 191.25224304 C-5.68320457 191.21934245 -5.68320457 191.21934245 -9 189 C-10.67107844 186.47020579 -11.83638924 183.79313085 -13 181 C-13.29236542 180.31755219 -13.58473083 179.63510437 -13.88595581 178.93197632 C-14.78059389 176.80107322 -15.64191526 174.6591422 -16.49609375 172.51171875 C-16.81151627 171.72787308 -17.12693878 170.9440274 -17.45191956 170.13642883 C-18.45028604 167.65471241 -19.44432038 165.17129628 -20.4375 162.6875 C-21.74571485 159.41936709 -23.05657722 156.15232226 -24.37109375 152.88671875 C-24.68436615 152.10755096 -24.99763855 151.32838318 -25.32040405 150.52560425 C-27.4525763 145.2577315 -29.7231158 140.07437722 -32.17211914 134.94458008 C-33 133 -33 133 -33 131 C-35.97501684 133.55001444 -37.3114067 136.50929453 -39 140 C-43.27060618 140.11589162 -47.54080984 140.18714802 -51.8125 140.25 C-53.02744141 140.28351563 -54.24238281 140.31703125 -55.49414062 140.3515625 C-56.65751953 140.36445313 -57.82089844 140.37734375 -59.01953125 140.390625 C-60.09307861 140.41157227 -61.16662598 140.43251953 -62.27270508 140.45410156 C-65 140 -65 140 -66.72045898 138.3203125 C-68.1355251 135.75423955 -69.33070335 133.19245427 -70.453125 130.484375 C-70.90405518 129.40591309 -71.35498535 128.32745117 -71.81958008 127.21630859 C-72.29161865 126.07242676 -72.76365723 124.92854492 -73.25 123.75 C-74.23742512 121.38245526 -75.22570417 119.01526647 -76.21484375 116.6484375 C-76.6929248 115.50213867 -77.17100586 114.35583984 -77.66357422 113.17480469 C-79.32911255 109.21816229 -81.06214107 105.2946115 -82.8125 101.375 C-87.48851932 90.82217508 -91.46851739 79.98683478 -95 69 C-95.66 69 -96.32 69 -97 69 C-97.2582959 70.24201172 -97.5165918 71.48402344 -97.78271484 72.76367188 C-99.06488936 78.52369801 -100.75910268 84.13842434 -102.4765625 89.78125 C-102.80667328 90.87594604 -103.13678406 91.97064209 -103.47689819 93.09851074 C-104.52319438 96.56661047 -105.57383547 100.03337306 -106.625 103.5 C-107.68263796 106.9953879 -108.73934515 110.49105191 -109.79452515 113.98718262 C-110.44953732 116.15668809 -111.10609432 118.32572784 -111.76431274 120.4942627 C-112.05816864 121.46617554 -112.35202454 122.43808838 -112.65478516 123.43945312 C-112.91522614 124.2983313 -113.17566711 125.15720947 -113.44400024 126.04211426 C-114.04552968 127.82111033 -114.04552968 127.82111033 -114 129 C-113.25951416 128.99476318 -112.51902832 128.98952637 -111.75610352 128.98413086 C-108.35824452 128.96317443 -104.96039919 128.95028092 -101.5625 128.9375 C-100.39783203 128.92912109 -99.23316406 128.92074219 -98.03320312 128.91210938 C-91.59673798 128.89397849 -85.37934125 129.13350124 -79 130 C-79.61764159 135.75950782 -81.12122064 140.9070431 -83 146.375 C-83.27328125 147.19355469 -83.5465625 148.01210938 -83.828125 148.85546875 C-85.85925752 154.85925752 -85.85925752 154.85925752 -87 156 C-89.66426685 156.16003488 -92.30560428 156.25942889 -94.97265625 156.31640625 C-95.77029892 156.33718735 -96.56794159 156.35796844 -97.38975525 156.37937927 C-99.94724611 156.44496158 -102.5048428 156.50379967 -105.0625 156.5625 C-106.79232882 156.60567699 -108.52214679 156.64929101 -110.25195312 156.69335938 C-114.5011926 156.80065172 -118.7505389 156.90189426 -123 157 C-123.25974609 158.05203613 -123.51949219 159.10407227 -123.78710938 160.18798828 C-127.59378712 175.55163174 -127.59378712 175.55163174 -129.5 181.875 C-129.68691406 182.54917969 -129.87382812 183.22335937 -130.06640625 183.91796875 C-131.48391264 188.60231106 -131.48391264 188.60231106 -133.55371094 190.19726562 C-137.18329543 191.38829096 -140.71776361 191.13032628 -144.484375 190.9765625 C-145.29996887 190.95153656 -146.11556274 190.92651062 -146.95587158 190.90072632 C-149.55434945 190.81872056 -152.15204505 190.72205694 -154.75 190.625 C-156.51429122 190.56674052 -158.27861431 190.50943767 -160.04296875 190.453125 C-164.36242704 190.31317086 -168.68124231 190.16007115 -173 190 C-170.63502326 180.702724 -167.62488363 171.64597457 -164.5625 162.5625 C-164.02166018 160.9508698 -163.48114001 159.33913231 -162.94091797 157.72729492 C-161.82877482 154.40961014 -160.71529009 151.09237981 -159.60107422 147.77539062 C-158.16405697 143.49378375 -156.7375094 139.2087866 -155.31640625 134.921875 C-149.21864795 116.53476678 -143.0501031 98.17115825 -136.85928917 79.81519222 C-135.62724314 76.16211201 -134.39647604 72.50861511 -133.16925049 68.85391235 C-131.99821168 65.36693611 -130.8228761 61.88143465 -129.64459229 58.39690018 C-129.00277989 56.49563359 -128.36507151 54.59298311 -127.72753906 52.6902771 C-123.4636494 40.10865984 -118.44041546 27.85050819 -113.25 15.625 C-112.86457031 14.69945312 -112.47914063 13.77390625 -112.08203125 12.8203125 C-111.70949219 11.94375 -111.33695313 11.0671875 -110.953125 10.1640625 C-110.62473633 9.38498535 -110.29634766 8.6059082 -109.95800781 7.80322266 C-109 6 -109 6 -107 5 C-103.86089905 4.71115012 -100.71336668 4.72227778 -97.5625 4.6875 C-96.25442383 4.64399414 -96.25442383 4.64399414 -94.91992188 4.59960938 C-93.66211914 4.58704102 -93.66211914 4.58704102 -92.37890625 4.57421875 C-91.6113501 4.55963623 -90.84379395 4.54505371 -90.05297852 4.5300293 C-88 5 -88 5 -86.359375 6.7109375 C-84.93351818 9.11194927 -83.87643916 11.44546975 -82.87109375 14.05078125 C-82.48115234 15.04722656 -82.09121094 16.04367188 -81.68945312 17.0703125 C-81.06973633 18.67519531 -81.06973633 18.67519531 -80.4375 20.3125 C-77.11324293 28.7822566 -73.67733263 37.1774241 -70 45.5 C-65.95755668 54.6693475 -62.18062082 63.9256301 -58.49072266 73.24194336 C-55.4592398 80.88874638 -52.31332818 88.47093313 -49 96 C-46.81152311 93.23996485 -45.17759576 90.53977856 -43.6875 87.3515625 C-43.25751709 86.44003418 -42.82753418 85.52850586 -42.38452148 84.58935547 C-41.92762939 83.61111816 -41.4707373 82.63288086 -41 81.625 C-37.23849283 73.65938143 -33.40505047 65.74004788 -29.4375 57.875 C-25.83711005 50.73223948 -22.34293956 43.55014606 -18.9375 36.3125 C-13.10590284 23.94519173 -6.78343488 11.87101105 0 0 Z " fill="#8A8681" transform="translate(304,151)"/>
<path d="M0 0 C1.87426547 1.7024999 3.73474526 3.42035596 5.578125 5.15625 C7.96451987 7.4455991 7.96451987 7.4455991 11.0234375 9.7578125 C34.13721593 30.35922371 48.62066113 62.60063076 54.8984375 92.3203125 C55.08317627 93.18696533 55.26791504 94.05361816 55.45825195 94.9465332 C57.1416601 103.77632906 57.33958154 112.5525202 57.3359375 121.5078125 C57.33704025 122.69043167 57.33704025 122.69043167 57.33816528 123.89694214 C57.30344856 138.14500827 55.84438807 151.57207988 51.8984375 165.3203125 C51.65738281 166.16255371 51.41632813 167.00479492 51.16796875 167.87255859 C45.45828157 186.89352044 34.94182422 204.42832746 21.8984375 219.3203125 C21.39779785 219.89249512 20.8971582 220.46467773 20.38134766 221.05419922 C14.61480496 227.58021132 8.70896639 233.86695422 1.8984375 239.3203125 C0.52171875 240.45339844 0.52171875 240.45339844 -0.8828125 241.609375 C-22.11494129 258.75387323 -48.11069079 271.03919734 -75.1015625 275.3203125 C-76.94234375 275.62775391 -76.94234375 275.62775391 -78.8203125 275.94140625 C-117.90391159 281.70067644 -159.90748294 272.97319852 -192.359375 250.015625 C-195.68437677 247.54436692 -198.90122805 244.95003013 -202.1015625 242.3203125 C-202.67938477 241.85077148 -203.25720703 241.38123047 -203.85253906 240.89746094 C-216.60729768 230.48328064 -227.2814771 219.34381302 -236.1015625 205.3203125 C-236.46459473 204.74925781 -236.82762695 204.17820312 -237.20166016 203.58984375 C-259.4686618 167.99407226 -265.64698609 125.47290823 -256.5390625 84.6328125 C-246.36474012 45.25026656 -220.86404624 8.87081174 -186.1015625 -12.6796875 C-128.05662631 -46.59002684 -52.07605603 -45.76179269 0 0 Z M-214.56103516 20.96386719 C-217.93486318 24.94266539 -221.0473621 29.09353779 -224.1015625 33.3203125 C-224.5253418 33.89587891 -224.94912109 34.47144531 -225.38574219 35.06445312 C-236.37521849 50.11691029 -244.54482091 67.02038516 -248.62988281 85.23193359 C-249.070517 87.18285743 -249.56456433 89.12150254 -250.0625 91.05859375 C-254.89425114 112.75714589 -253.70650665 137.95310757 -248.1015625 159.3203125 C-247.90852539 160.07699219 -247.71548828 160.83367187 -247.51660156 161.61328125 C-244.91613429 171.40026154 -240.83783973 180.32356058 -236.2265625 189.3203125 C-235.50436523 190.73558228 -235.50436523 190.73558228 -234.76757812 192.17944336 C-231.21647204 198.85781003 -226.94134817 204.5296417 -222.1015625 210.3203125 C-220.90758757 211.85696998 -219.71912851 213.39794811 -218.5390625 214.9453125 C-217.39480204 216.40488029 -216.24904506 217.8632765 -215.1015625 219.3203125 C-214.62976563 219.94164062 -214.15796875 220.56296875 -213.671875 221.203125 C-204.57912919 232.46305375 -191.67199888 241.38285469 -179.1015625 248.3203125 C-178.51503906 248.64837891 -177.92851562 248.97644531 -177.32421875 249.31445312 C-155.06092197 261.62280853 -130.82188724 267.49622978 -105.47827148 267.56054688 C-103.20062378 267.57015822 -100.92391763 267.60120549 -98.64648438 267.6328125 C-84.82348017 267.73327677 -71.52743488 265.78609014 -58.2890625 261.6953125 C-57.46269287 261.44007813 -56.63632324 261.18484375 -55.78491211 260.921875 C-32.25630349 253.37492082 -11.52758968 240.85147408 5.8984375 223.3203125 C6.91744141 222.35544922 6.91744141 222.35544922 7.95703125 221.37109375 C35.08521766 195.45128981 47.70522511 157.92369814 49.8984375 121.3203125 C49.970625 120.32257813 50.0428125 119.32484375 50.1171875 118.296875 C51.1966741 89.78043735 40.08404393 57.77877545 22.8984375 35.3203125 C22.10625371 34.23475218 21.31461724 33.14879231 20.5234375 32.0625 C10.98733339 19.22996484 -0.36488955 6.66591688 -14.1015625 -1.6796875 C-15.45149411 -2.5466635 -16.80035118 -3.41531373 -18.1484375 -4.28515625 C-42.7758906 -19.97662962 -69.48862253 -28.84114384 -98.84985352 -28.91992188 C-101.00252496 -28.92952451 -103.15419658 -28.96055935 -105.30664062 -28.9921875 C-145.84049211 -29.3026126 -187.77188487 -9.20417559 -214.56103516 20.96386719 Z " fill="#3C3C3E" transform="translate(350.1015625,132.6796875)"/>
<path d="M0 0 C0.99 0.66 1.98 1.32 3 2 C3 2.66 3 3.32 3 4 C4.32 3.67 5.64 3.34 7 3 C6.56945312 4.22460938 6.13890625 5.44921875 5.6953125 6.7109375 C3.73430372 12.59857257 2.30145186 18.58945997 0.875 24.625 C0.61074219 25.718125 0.34648438 26.81125 0.07421875 27.9375 C-5.3592252 50.7193513 -4.94805798 76.32477427 1 99 C1.19303711 99.75667969 1.38607422 100.51335937 1.58496094 101.29296875 C4.18542821 111.07994904 8.26372277 120.00324808 12.875 129 C13.59719727 130.41526978 13.59719727 130.41526978 14.33398438 131.85913086 C17.88509046 138.53749753 22.16021433 144.2093292 27 150 C28.19401734 151.53662453 29.38248638 153.07759565 30.5625 154.625 C31.70607728 156.08510313 32.85182055 157.5435131 34 159 C34.495 159.64453125 34.99 160.2890625 35.5 160.953125 C54.31031639 184.08981416 86.59398326 198.09521751 115 204 C114.01 204.66 113.02 205.32 112 206 C112.66 206.66 113.32 207.32 114 208 C114 208.66 114 209.32 114 210 C111.80102462 212.19897538 111.01457273 212.60219725 108 213 C105.59667969 212.50610352 105.59667969 212.50610352 102.921875 211.62890625 C101.93348633 211.30591553 100.94509766 210.9829248 99.92675781 210.65014648 C98.3542627 210.11176147 98.3542627 210.11176147 96.75 209.5625 C95.67331055 209.19777588 94.59662109 208.83305176 93.48730469 208.45727539 C84.54604666 205.34706934 76.26323762 201.59172034 68 197 C66.38931641 196.13761719 66.38931641 196.13761719 64.74609375 195.2578125 C57.47964807 191.2301785 51.29307636 186.39529866 45 181 C43.93831058 180.13152548 42.87443551 179.26571723 41.80859375 178.40234375 C29.90878519 168.69418759 20.20891185 158.05176474 12 145 C11.63696777 144.42894531 11.27393555 143.85789062 10.89990234 143.26953125 C-10.92932097 108.37358715 -17.74913352 66.03927674 -8.73242188 25.87524414 C-6.58642202 16.97738138 -3.38687994 8.48977906 0 0 Z " fill="#363637" transform="translate(102,193)"/>
<path d="M0 0 C2.25380778 2.16154664 3.07215536 3.96878476 4.00390625 6.921875 C-4.71334298 6.921875 -11.59068318 2.36739776 -18.93652344 -1.98510742 C-26.68567416 -6.55598014 -34.55177665 -9.99659316 -42.99609375 -13.078125 C-44.01445312 -13.45839844 -45.0328125 -13.83867188 -46.08203125 -14.23046875 C-60.54819253 -19.36925258 -75.46049542 -21.27735173 -90.74438477 -21.31835938 C-92.89705621 -21.32796201 -95.04872783 -21.35899685 -97.20117188 -21.390625 C-131.8761505 -21.65618041 -165.65400545 -6.95932408 -191.99609375 14.921875 C-192.56730957 15.39383301 -193.13852539 15.86579102 -193.72705078 16.35205078 C-209.23997719 29.35367289 -221.61896284 47.04826337 -230.30932617 65.26342773 C-232.51199616 69.69692259 -232.51199616 69.69692259 -235.09765625 70.8984375 C-236.99609375 70.921875 -236.99609375 70.921875 -238.99609375 69.921875 C-238.26413018 53.81867644 -223.73396576 36.06266903 -212.99609375 24.921875 C-211.82177544 23.57433837 -210.65471976 22.22042762 -209.49609375 20.859375 C-156.79067795 -39.18629278 -63.89718536 -45.65478282 0 0 Z " fill="#B0A9A3" transform="translate(341.99609375,126.078125)"/>
<path d="M0 0 C3.56514876 1.53613553 6.03870356 3.6838452 8.875 6.3125 C11.5540324 8.78033861 14.18257057 11.14158534 17.0625 13.375 C40.19911774 34.05027543 54.69528441 66.2061695 61 96 C61.18618896 96.86085205 61.37237793 97.7217041 61.56420898 98.60864258 C63.15565273 106.86447816 63.33936323 114.9758972 63.31567383 123.35229492 C63.31252788 125.66699025 63.33601249 127.98038462 63.36132812 130.29492188 C63.3965044 138.02108866 63.01597749 145.57077233 61.79296875 153.20703125 C61.6433947 154.22913948 61.6433947 154.22913948 61.49079895 155.27189636 C60.51419231 160.65597596 58.30177126 163.78969424 55 168 C51.81055125 173.36857523 49.8851526 179.0767063 48 185 C45.48500366 192.67666423 45.48500366 192.67666423 42 195 C42 196.32 42 197.64 42 199 C41.34 199 40.68 199 40 199 C39.67 199.66 39.34 200.32 39 201 C38.25 198.8125 38.25 198.8125 38 196 C39.9375 193.1875 39.9375 193.1875 42 191 C41.67 190.34 41.34 189.68 41 189 C41.92578125 186.3203125 41.92578125 186.3203125 43.3125 183.125 C43.76238281 182.07570313 44.21226562 181.02640625 44.67578125 179.9453125 C46 177 46 177 47.11328125 174.99609375 C48.29878697 172.32740027 48.53634864 169.8367703 48.875 166.9375 C49.63953742 161.05362001 50.76156632 155.34915084 52.0625 149.5625 C53.87262834 141.33471866 54.76172353 133.43895838 55 125 C55.0515625 124.13117188 55.103125 123.26234375 55.15625 122.3671875 C56.23693244 93.63904586 45.35003746 61.66328145 28 39 C27.19620988 37.90264007 26.39284861 36.80496593 25.58984375 35.70703125 C16.72487765 23.81443552 6.39142802 12.14213544 -6.2421875 4.19921875 C-8 3 -8 3 -9 1 C-8.0925 1.309375 -7.185 1.61875 -6.25 1.9375 C-3.83436662 2.7272263 -1.47219715 3.42949297 1 4 C0.67 2.68 0.34 1.36 0 0 Z " fill="#5B5A59" transform="translate(344,129)"/>
<path d="M0 0 C0.99 0.66 1.98 1.32 3 2 C3 2.66 3 3.32 3 4 C4.32 3.67 5.64 3.34 7 3 C6.56945312 4.22460938 6.13890625 5.44921875 5.6953125 6.7109375 C3.73430372 12.59857257 2.30145186 18.58945997 0.875 24.625 C0.61074219 25.718125 0.34648438 26.81125 0.07421875 27.9375 C-6.9028186 57.19147385 -5.2339251 93.17900101 8.69921875 120.30859375 C10.34615919 123.71622727 9.92283907 125.38554698 9 129 C8.814375 129.94875 8.62875 130.8975 8.4375 131.875 C8.293125 132.57625 8.14875 133.2775 8 134 C7.34 134 6.68 134 6 134 C-13.11694858 98.90383908 -17.96709464 56.56946236 -6.64453125 18.03808594 C-4.71110281 11.92435085 -2.3749393 5.95318118 0 0 Z " fill="#4E4D4D" transform="translate(102,193)"/>
<path d="M0 0 C1.32 0.66 2.64 1.32 4 2 C2.82566406 2.57105469 1.65132813 3.14210938 0.44140625 3.73046875 C-11.43789515 9.65458527 -21.82384075 16.4895104 -32 25 C-32.85247314 25.70576172 -32.85247314 25.70576172 -33.72216797 26.42578125 C-49.23998032 39.42833093 -61.62086646 57.12219083 -70.31323242 75.34155273 C-72.51590241 79.77504759 -72.51590241 79.77504759 -75.1015625 80.9765625 C-77 81 -77 81 -79 80 C-78.26803643 63.89680144 -63.73787201 46.14079403 -53 35 C-51.82568169 33.65246337 -50.65862601 32.29855262 -49.5 30.9375 C-41.77956797 22.14184798 -33.37291499 14.93914418 -24 8 C-23.34 8.33 -22.68 8.66 -22 9 C-22.33 9.66 -22.66 10.32 -23 11 C-20.525 11.495 -20.525 11.495 -18 12 C-17.67 11.01 -17.34 10.02 -17 9 C-16.01 8.67 -15.02 8.34 -14 8 C-13.01 8.495 -13.01 8.495 -12 9 C-11.67 8.01 -11.34 7.02 -11 6 C-8.03 5.505 -8.03 5.505 -5 5 C-4.67 4.01 -4.34 3.02 -4 2 C-3.01 2.33 -2.02 2.66 -1 3 C-0.67 2.01 -0.34 1.02 0 0 Z " fill="#9A9790" transform="translate(182,116)"/>
<path d="M0 0 C3.56514876 1.53613553 6.03870356 3.6838452 8.875 6.3125 C11.5540324 8.78033861 14.18257057 11.14158534 17.0625 13.375 C28.40919729 23.51460183 39.51625414 39.13079527 46 53 C46 54.32 46 55.64 46 57 C45.01 57 44.02 57 43 57 C43.495 57.78375 43.99 58.5675 44.5 59.375 C46 62 46 62 46 64 C44.68 64 43.36 64 42 64 C41.52691406 62.99582031 41.05382812 61.99164063 40.56640625 60.95703125 C30.12958622 39.2089766 14.47904088 17.32768003 -6.20703125 4.234375 C-8 3 -8 3 -9 1 C-8.0925 1.309375 -7.185 1.61875 -6.25 1.9375 C-3.83436662 2.7272263 -1.47219715 3.42949297 1 4 C0.67 2.68 0.34 1.36 0 0 Z " fill="#7D7776" transform="translate(344,129)"/>
<path d="M0 0 C10.23 0 20.46 0 31 0 C30.67 0.99 30.34 1.98 30 3 C28.02 3.33 26.04 3.66 24 4 C24 3.34 24 2.68 24 2 C20.56126184 2.05179764 17.12505092 2.14685105 13.6875 2.25 C12.71103516 2.26417969 11.73457031 2.27835938 10.72851562 2.29296875 C9.79072266 2.32519531 8.85292969 2.35742188 7.88671875 2.390625 C6.59060669 2.4220459 6.59060669 2.4220459 5.26831055 2.45410156 C2.84492651 2.81649266 2.84492651 2.81649266 1.23364258 4.8972168 C-0.47704786 7.81314332 -0.84084108 10.57936208 -1.375 13.87890625 C-2.10828632 16.36749671 -3.10995256 17.2730531 -5 19 C-6.8094104 22.27085727 -8.29196103 25.31819736 -9 29 C-9.66 29 -10.32 29 -11 29 C-11.11601562 29.54785156 -11.23203125 30.09570312 -11.3515625 30.66015625 C-12.11091311 33.4002226 -13.19173503 35.85224533 -14.375 38.4375 C-14.79523438 39.36433594 -15.21546875 40.29117188 -15.6484375 41.24609375 C-17 44 -17 44 -18.5703125 46.6015625 C-19.83103919 48.71655208 -20.70406426 50.62075848 -21.5 52.9375 C-22.75905027 56.4377916 -24.27461725 59.69926779 -26 63 C-26.391875 63.78375 -26.78375 64.5675 -27.1875 65.375 C-27.455625 65.91125 -27.72375 66.4475 -28 67 C-28.66 67 -29.32 67 -30 67 C-29.87625 68.36125 -29.87625 68.36125 -29.75 69.75 C-30 73 -30 73 -31.78125 74.75 C-34.5568742 77.5647175 -36.07937778 80.7223342 -37.75 84.25 C-38.22373047 85.22453125 -38.22373047 85.22453125 -38.70703125 86.21875 C-39.47873965 87.80893701 -40.24040275 89.40399229 -41 91 C-41.66 90.67 -42.32 90.34 -43 90 C-42.4923519 84.33363646 -40.9317888 80.19805542 -38.31640625 75.1796875 C-37.94527206 74.44718277 -37.57413788 73.71467804 -37.1917572 72.9599762 C-35.99087558 70.5936815 -34.7766687 68.23449987 -33.5625 65.875 C-32.31546414 63.42472736 -31.07213916 60.97259861 -29.82931519 58.52018738 C-29.01080563 56.90508158 -28.19125223 55.29050434 -27.37063599 53.6764679 C-24.30858627 47.64495447 -21.36250482 41.56638828 -18.5 35.4375 C-12.82980838 23.35694623 -6.62031126 11.5855447 0 0 Z " fill="#B6B4AF" transform="translate(304,151)"/>
<path d="M0 0 C18.49184987 3.30211605 41.39675628 12.72653188 55 26 C56.27734375 28.73046875 56.27734375 28.73046875 57 31 C48.28275077 31 41.40541057 26.44552276 34.05957031 22.09301758 C20.43834501 14.05847426 5.40082513 8.55403657 -10 5 C-7.63662921 4.35133014 -5.85095812 4.00354862 -3.375 4.0625 C-0.80875196 4.26759225 -0.80875196 4.26759225 1 2 C0.67 1.34 0.34 0.68 0 0 Z " fill="#B3ADA7" transform="translate(289,102)"/>
<path d="M0 0 C0.81275391 0.01788574 1.62550781 0.03577148 2.46289062 0.05419922 C12.99382587 0.3301629 22.83171264 1.04971224 33 4 C33 4.66 33 5.32 33 6 C33.66 6.33 34.32 6.66 35 7 C34.34 7.99 33.68 8.98 33 10 C30.95756745 9.91212085 28.91600387 9.80393311 26.875 9.6875 C25.16957031 9.60048828 25.16957031 9.60048828 23.4296875 9.51171875 C20 9 20 9 17.34179688 7.48632812 C13.08511546 5.59308759 9.69693857 5.61811479 5.1015625 5.70703125 C3.84912247 5.71339851 3.84912247 5.71339851 2.57138062 5.71989441 C-0.07775035 5.73659667 -2.7261016 5.77423225 -5.375 5.8125 C-7.17837438 5.8275578 -8.98176076 5.84124429 -10.78515625 5.85351562 C-15.1904015 5.88647238 -19.59506886 5.93819531 -24 6 C-24.33 5.01 -24.66 4.02 -25 3 C-25.66 2.34 -26.32 1.68 -27 1 C-17.99798935 -0.06803516 -9.05036548 -0.19935578 0 0 Z " fill="#D9D2CB" transform="translate(256,97)"/>
<path d="M0 0 C0 3.51716303 -0.82445585 4.37121748 -3 7 C-1.0745356 9.2236068 -1.0745356 9.2236068 2 10 C1.67837891 10.46672119 1.35675781 10.93344238 1.02539062 11.41430664 C-4.98999005 20.18316131 -10.85472203 28.85726442 -15.41210938 38.49047852 C-17.52737159 42.78220295 -17.52737159 42.78220295 -20.09375 43.96484375 C-22 44 -22 44 -24 43 C-23.33034788 28.26765338 -10.17605178 10.24344285 0 0 Z " fill="#878480" transform="translate(127,153)"/>
<path d="M0 0 C1.90729141 1.83099975 3.73667031 3.67505557 5.40234375 5.73046875 C10.50083139 11.97580446 16.4579167 16.35931036 23 21 C22.67 21.66 22.34 22.32 22 23 C22.58910156 23.43570312 23.17820313 23.87140625 23.78515625 24.3203125 C26.04754489 26.11314878 28.09615114 27.82727043 30 30 C30 33.4375 30 33.4375 29 36 C23.78836841 33.21825014 19.47727404 30.09633748 15.0625 26.1875 C14.45567383 25.65777588 13.84884766 25.12805176 13.22363281 24.58227539 C12.02415092 23.5344098 10.82664836 22.4842732 9.63134766 21.43164062 C8.22617628 20.19848813 6.8076759 18.98055399 5.38671875 17.765625 C4.68160156 17.16234375 3.97648438 16.5590625 3.25 15.9375 C2.65703125 15.43089844 2.0640625 14.92429687 1.453125 14.40234375 C0 13 0 13 -2 10 C-1.34 10 -0.68 10 0 10 C0 6.7 0 3.4 0 0 Z " fill="#333334" transform="translate(132,348)"/>
<path d="M0 0 C0.66 0.66 1.32 1.32 2 2 C1.625 4.625 1.625 4.625 1 7 C0.34 7 -0.32 7 -1 7 C-1.26554687 8.10859375 -1.53109375 9.2171875 -1.8046875 10.359375 C-3.28532253 16.28713781 -5.13812113 22.10116788 -6.96484375 27.9296875 C-7.22652344 28.78304687 -7.48820313 29.63640625 -7.7578125 30.515625 C-7.9964502 31.28165039 -8.23508789 32.04767578 -8.48095703 32.83691406 C-9.1555543 35.27751686 -9.1555543 35.27751686 -9 39 C-9.66 39 -10.32 39 -11 39 C-11.18175781 39.78503906 -11.36351562 40.57007813 -11.55078125 41.37890625 C-14.4137931 53.34482759 -14.4137931 53.34482759 -17 58 C-19.1875 58.9375 -19.1875 58.9375 -21 59 C-20.37539351 53.01384871 -18.73495953 47.65722777 -16.796875 41.97265625 C-16.31737396 40.55103432 -16.31737396 40.55103432 -15.82818604 39.10069275 C-15.15215665 37.10356206 -14.47287262 35.10753045 -13.79052734 33.11254883 C-12.75583908 30.07961582 -11.73875811 27.0411556 -10.72265625 24.00195312 C-10.0609628 22.05432468 -9.39823593 20.10704696 -8.734375 18.16015625 C-8.43521179 17.26095963 -8.13604858 16.361763 -7.82781982 15.43531799 C-5.86951966 9.77428047 -3.40631442 4.9293705 0 0 Z " fill="#A4A19B" transform="translate(189,174)"/>
<path d="M0 0 C6.80186781 1.33807236 13.76922078 2.873484 20 6 C20.33 6.99 20.66 7.98 21 9 C19.7890625 10.53125 19.7890625 10.53125 18 12 C8.8514975 12.13603721 -1.30184231 7.67164984 -10 5 C-7.63662921 4.35133014 -5.85095812 4.00354862 -3.375 4.0625 C-0.80875196 4.26759225 -0.80875196 4.26759225 1 2 C0.67 1.34 0.34 0.68 0 0 Z " fill="#A19C95" transform="translate(289,102)"/>
<path d="M0 0 C1.46187507 4.55998234 -0.08520918 7.87793102 -1.7109375 12.1953125 C-1.99852936 12.98396698 -2.28612122 13.77262146 -2.58242798 14.58517456 C-3.50321437 17.10228147 -4.43901699 19.61350964 -5.375 22.125 C-5.99835965 23.82386541 -6.62076686 25.52308062 -7.2421875 27.22265625 C-11.73906305 39.47812609 -11.73906305 39.47812609 -13 42 C-13.66 42 -14.32 42 -15 42 C-14.56987764 34.28309877 -12.41005328 27.40128208 -9.87182617 20.15063477 C-9.18454731 18.17902959 -8.52032769 16.2006177 -7.85742188 14.22070312 C-7.42063275 12.95265506 -6.98252769 11.68505934 -6.54296875 10.41796875 C-6.15133545 9.28125732 -5.75970215 8.1445459 -5.35620117 6.97338867 C-3.96207362 3.91684871 -2.51787925 2.18665843 0 0 Z " fill="#A3A29E" transform="translate(150,290)"/>
<path d="M0 0 C1.39403714 4.18211142 -0.06609911 7.1764985 -1.4375 11.1875 C-1.7053833 11.980354 -1.9732666 12.77320801 -2.24926758 13.59008789 C-4.21947476 19.21773333 -6.52681321 24.60311723 -9.1875 29.9375 C-9.51999756 30.60483154 -9.85249512 31.27216309 -10.19506836 31.9597168 C-11.79872249 35.05877338 -13.30548766 37.73927912 -16 40 C-16.33 37.69 -16.66 35.38 -17 33 C-16.360625 32.814375 -15.72125 32.62875 -15.0625 32.4375 C-12.59722815 31.07928507 -12.59722815 31.07928507 -12.375 27.5625 C-12.189375 25.7990625 -12.189375 25.7990625 -12 24 C-11.34 23.01 -10.68 22.02 -10 21 C-9.7525 20.01 -9.505 19.02 -9.25 18 C-7.52827491 11.50187627 -3.70077176 5.55115763 0 0 Z " fill="#454545" transform="translate(402,291)"/>
<path d="M0 0 C4.12357938 4.85993284 8 9.44005979 8 16 C7.01 16 6.02 16 5 16 C5.495 16.78375 5.99 17.5675 6.5 18.375 C8 21 8 21 8 23 C6.68 23 5.36 23 4 23 C0.33333333 15.66666667 -3.33333333 8.33333333 -7 1 C-4.69 1.33 -2.38 1.66 0 2 C0 1.34 0 0.68 0 0 Z " fill="#6C6A67" transform="translate(382,170)"/>
<path d="M0 0 C1.32 0.66 2.64 1.32 4 2 C3.49251221 2.25056152 2.98502441 2.50112305 2.4621582 2.75927734 C-7.62660781 7.78485716 -16.87316921 12.9118041 -25.53125 20.1640625 C-28 22 -28 22 -31 22 C-31.33 21.01 -31.66 20.02 -32 19 C-30.02 17.02 -28.04 15.04 -26 13 C-27.32 13.33 -28.64 13.66 -30 14 C-27.6875 11.5 -27.6875 11.5 -25 9 C-24.01 9 -23.02 9 -22 9 C-22.33 9.66 -22.66 10.32 -23 11 C-21.35 11.33 -19.7 11.66 -18 12 C-17.67 11.01 -17.34 10.02 -17 9 C-16.01 8.67 -15.02 8.34 -14 8 C-13.34 8.33 -12.68 8.66 -12 9 C-11.67 8.01 -11.34 7.02 -11 6 C-9.02 5.67 -7.04 5.34 -5 5 C-4.67 4.01 -4.34 3.02 -4 2 C-3.01 2.33 -2.02 2.66 -1 3 C-0.67 2.01 -0.34 1.02 0 0 Z " fill="#8E8B87" transform="translate(182,116)"/>
<path d="M0 0 C8.14056611 1.46205289 13.27575026 9.32611923 17.75 15.66796875 C19 18 19 18 19 22 C17.35 22.33 15.7 22.66 14 23 C14 22.34 14 21.68 14 21 C13.01 21 12.02 21 11 21 C10.814375 19.576875 10.814375 19.576875 10.625 18.125 C10.28312823 14.91332809 10.28312823 14.91332809 8 13 C7.690625 12.154375 7.38125 11.30875 7.0625 10.4375 C6.711875 9.633125 6.36125 8.82875 6 8 C5.01 7.67 4.02 7.34 3 7 C0.64046906 4.64046906 0.50858587 3.22104383 0 0 Z " fill="#7E7A77" transform="translate(363,150)"/>
<path d="M0 0 C1 3 1 3 0 6 C-0.99 6 -1.98 6 -3 6 C-3.33 6.66 -3.66 7.32 -4 8 C-6 8.66666667 -8 9.33333333 -10 10 C-10.33 10.66 -10.66 11.32 -11 12 C-13.5625 12.625 -13.5625 12.625 -16 13 C-16.33 13.99 -16.66 14.98 -17 16 C-19.475 15.01 -19.475 15.01 -22 14 C-21.0402047 10.18747978 -20.1100624 9.07607254 -16.8125 6.796875 C-15.54986855 6.09952207 -14.27863342 5.41755962 -13 4.75 C-12.03707031 4.2240625 -12.03707031 4.2240625 -11.0546875 3.6875 C-4.27536058 0 -4.27536058 0 0 0 Z " fill="#B2ADA4" transform="translate(181,113)"/>
<path d="M0 0 C0.66 0.66 1.32 1.32 2 2 C1.85418988 6.22849337 -1.10247557 8.23418123 -4 11 C-4.90796414 12.09421319 -5.80407131 13.1983837 -6.6875 14.3125 C-7.8321875 15.6428125 -7.8321875 15.6428125 -9 17 C-9.66 17 -10.32 17 -11 17 C-11 17.66 -11 18.32 -11 19 C-12.86328125 20.76171875 -12.86328125 20.76171875 -15.3125 22.6875 C-16.51326172 23.65236328 -16.51326172 23.65236328 -17.73828125 24.63671875 C-18.48464844 25.08660156 -19.23101562 25.53648437 -20 26 C-20.99 25.67 -21.98 25.34 -23 25 C-22.01 24.34 -21.02 23.68 -20 23 C-19.7525 22.278125 -19.505 21.55625 -19.25 20.8125 C-17.69031491 17.30320854 -15.49948971 15.33094665 -12.7421875 12.7109375 C-10.81669651 10.89415565 -10.81669651 10.89415565 -8.75 8.125 C-7 6 -7 6 -4 5 C-2.61423077 3.37667033 -1.27358732 1.71275535 0 0 Z " fill="#515151" transform="translate(373,338)"/>
<path d="M0 0 C6.94485303 -0.48452463 13.2990368 1.30712509 20 3 C20 3.66 20 4.32 20 5 C20.66 5.33 21.32 5.66 22 6 C21.01 7.485 21.01 7.485 20 9 C11.85082664 8.74809356 5.19010111 7.99450062 -2 4 C-1.34 2.68 -0.68 1.36 0 0 Z " fill="#CCC4BD" transform="translate(269,98)"/>
<path d="M0 0 C-1.99872739 0.48444764 -3.99905937 0.9622766 -6 1.4375 C-7.11375 1.70433594 -8.2275 1.97117187 -9.375 2.24609375 C-15.9723126 3.61816415 -22.39213258 4.15721082 -29.12109375 4.16796875 C-30.23738914 4.17296135 -30.23738914 4.17296135 -31.37623596 4.17805481 C-32.93839914 4.18308041 -34.50057289 4.1854645 -36.06274414 4.18530273 C-38.42807973 4.18749128 -40.79294957 4.20569913 -43.15820312 4.22460938 C-50.67337389 4.25163702 -57.72253473 4.1138906 -65 2 C-65 1.67 -65 1.34 -65 1 C-63.74340576 1.00523682 -62.48681152 1.01047363 -61.19213867 1.01586914 C-56.53491934 1.03395417 -51.87770312 1.04544487 -47.22045898 1.05493164 C-45.20385211 1.05996382 -43.1872489 1.06679014 -41.1706543 1.07543945 C-38.27391661 1.08755373 -35.37722712 1.09323943 -32.48046875 1.09765625 C-31.57725388 1.10281754 -30.674039 1.10797882 -29.74345398 1.11329651 C-28.90280899 1.11337204 -28.062164 1.11344757 -27.19604492 1.11352539 C-26.08684944 1.11685631 -26.08684944 1.11685631 -24.95524597 1.12025452 C-22.78368342 1.07089116 -22.78368342 1.07089116 -20 0 C-17.34923253 -0.25515409 -14.71874931 -0.46329458 -12.0625 -0.625 C-11.34642578 -0.6765625 -10.63035156 -0.728125 -9.89257812 -0.78125 C-6.41419243 -1.00046244 -3.32118892 -1.16198255 0 0 Z " fill="#585859" transform="translate(285,399)"/>
<path d="M0 0 C0 4.49502184 -2.18644778 7.70489766 -4.25 11.625 C-4.64574219 12.41390625 -5.04148437 13.2028125 -5.44921875 14.015625 C-6.03896484 15.14097656 -6.03896484 15.14097656 -6.640625 16.2890625 C-6.99672852 16.97693848 -7.35283203 17.66481445 -7.71972656 18.37353516 C-9 20 -9 20 -11.02246094 20.79443359 C-13 21 -13 21 -15 20 C-14.50269348 15.02693484 -13.44697666 11.36200187 -11 7 C-10.01 7.33 -9.02 7.66 -8 8 C-7.34 7.34 -6.68 6.68 -6 6 C-6.33 5.34 -6.66 4.68 -7 4 C-6.34 4 -5.68 4 -5 4 C-5 3.34 -5 2.68 -5 2 C-3.35 1.34 -1.7 0.68 0 0 Z " fill="#6B6967" transform="translate(118,176)"/>
<path d="M0 0 C0 0.33 0 0.66 0 1 C-1.09957031 1.31453125 -2.19914062 1.6290625 -3.33203125 1.953125 C-4.82574578 2.38463877 -6.31921918 2.81698776 -7.8125 3.25 C-8.58698486 3.47381348 -9.36146973 3.69762695 -10.15942383 3.92822266 C-14.59057526 5.22822363 -18.89040514 6.67282669 -23.1875 8.375 C-27.1493924 9.88486753 -29.83356228 10.3512771 -34 9 C-34.33 8.01 -34.66 7.02 -35 6 C-35.66 5.67 -36.32 5.34 -37 5 C-35.54618103 4.30300448 -34.08677047 3.61766134 -32.625 2.9375 C-31.40683594 2.36322266 -31.40683594 2.36322266 -30.1640625 1.77734375 C-29.44992188 1.52082031 -28.73578125 1.26429687 -28 1 C-27.34 1.33 -26.68 1.66 -26 2 C-27.32 2.33 -28.64 2.66 -30 3 C-30 3.66 -30 4.32 -30 5 C-28.9171875 4.690625 -28.9171875 4.690625 -27.8125 4.375 C-24.55358415 3.94047789 -22.91695496 4.58319331 -20 6 C-20 5.34 -20 4.68 -20 4 C-18.35 4 -16.7 4 -15 4 C-14.67 3.01 -14.34 2.02 -14 1 C-12.0625 0.375 -12.0625 0.375 -10 0 C-6.7169902 -1.6415049 -3.57454967 -0.51888624 0 0 Z " fill="#A6A298" transform="translate(216,107)"/>
<path d="M0 0 C0.66 0.66 1.32 1.32 2 2 C1.625 4.625 1.625 4.625 1 7 C0.34 7 -0.32 7 -1 7 C-1.26554688 8.11375 -1.53109375 9.2275 -1.8046875 10.375 C-3.040174 15.31694598 -4.56836913 20.15135553 -6.125 25 C-6.54072266 26.30517578 -6.54072266 26.30517578 -6.96484375 27.63671875 C-7.64102456 29.7585275 -8.31944594 31.87959074 -9 34 C-9.33 34 -9.66 34 -10 34 C-9.979375 33.2575 -9.95875 32.515 -9.9375 31.75 C-9.87274274 29.10681217 -9.87274274 29.10681217 -10.5847168 27.09912109 C-11.10049711 24.4920199 -10.62568709 23.14326768 -9.70703125 20.6640625 C-9.40603516 19.84679687 -9.10503906 19.02953125 -8.79492188 18.1875 C-8.47072266 17.341875 -8.14652344 16.49625 -7.8125 15.625 C-7.50763672 14.78710938 -7.20277344 13.94921875 -6.88867188 13.0859375 C-5.07575408 8.25149005 -3.05781129 4.1629626 0 0 Z " fill="#ACA9A3" transform="translate(189,174)"/>
<path d="M0 0 C2.11528755 2.73743094 4.00920413 5.5099271 5.75 8.5 C6.19859375 9.2528125 6.6471875 10.005625 7.109375 10.78125 C8.14027176 13.34944895 7.95042831 14.45007037 7 17 C6.34 17 5.68 17 5 17 C3.66216607 17.31478446 2.32796291 17.64587656 1 18 C-3.08180411 12.35750608 -3.08180411 12.35750608 -2.85546875 8.6015625 C-2.17158072 5.56096679 -1.39552864 2.79105729 0 0 Z " fill="#3E3E41" transform="translate(112,318)"/>
<path d="M0 0 C10.23 0 20.46 0 31 0 C30.67 0.99 30.34 1.98 30 3 C28.02 3.33 26.04 3.66 24 4 C24 3.34 24 2.68 24 2 C11.34772752 0.98435534 11.34772752 0.98435534 0.1171875 5.29296875 C-1.51789479 7.80221841 -2.75380245 10.28594922 -4 13 C-4.66 13 -5.32 13 -6 13 C-4.53528034 7.99554115 -2.70958719 4.74177759 0 0 Z " fill="#ACA9A3" transform="translate(304,151)"/>
<path d="M0 0 C-0.42152344 0.39832031 -0.84304687 0.79664063 -1.27734375 1.20703125 C-1.82519531 1.73683594 -2.37304688 2.26664063 -2.9375 2.8125 C-3.75541016 3.59560547 -3.75541016 3.59560547 -4.58984375 4.39453125 C-6.23519092 6.05812198 -6.23519092 6.05812198 -7 9 C-10.51245066 12.18197815 -14.5058745 14.50195817 -19 16 C-19 16.66 -19 17.32 -19 18 C-19.66 18 -20.32 18 -21 18 C-19.31896363 10.34194543 -13.18681262 5.39589318 -7 1 C-2.44705882 -1.22352941 -2.44705882 -1.22352941 0 0 Z " fill="#93918C" transform="translate(157,129)"/>
<path d="M0 0 C0.99 0.33 1.98 0.66 3 1 C-8.33712984 13.85421412 -8.33712984 13.85421412 -15 18 C-15.66 16.68 -16.32 15.36 -17 14 C-14.73089288 12.03963533 -12.45980842 10.08164784 -10.1875 8.125 C-9.22360352 7.29162109 -9.22360352 7.29162109 -8.24023438 6.44140625 C-7.61826172 5.90644531 -6.99628906 5.37148438 -6.35546875 4.8203125 C-5.78465576 4.32805176 -5.21384277 3.83579102 -4.62573242 3.32861328 C-3 2 -3 2 0 0 Z " fill="#3A3A3C" transform="translate(368,352)"/>
<path d="M0 0 C4.1111941 0.61466382 7.13690398 2.91202979 10.5 5.1875 C16.7802769 9.34359005 23.1687668 12.80958889 30 16 C29.67 16.99 29.34 17.98 29 19 C23.83928262 17.64191648 19.74292191 15.15031499 15.26953125 12.33984375 C12.96285499 10.87096434 12.96285499 10.87096434 10 10 C10 9.34 10 8.68 10 8 C9.46375 7.773125 8.9275 7.54625 8.375 7.3125 C5.19684374 5.55615049 2.71920931 3.41020825 0 1 C0 0.67 0 0.34 0 0 Z " fill="#454546" transform="translate(153,370)"/>
<path d="M0 0 C0 3.51716303 -0.82445585 4.37121748 -3 7 C-1.0745356 9.2236068 -1.0745356 9.2236068 2 10 C-0.97 14.29 -3.94 18.58 -7 23 C-7.66 22.34 -8.32 21.68 -9 21 C-8.67 20.34 -8.34 19.68 -8 19 C-7.34 19 -6.68 19 -6 19 C-6.33 18.01 -6.66 17.02 -7 16 C-6.67 15.34 -6.34 14.68 -6 14 C-6.66 13.34 -7.32 12.68 -8 12 C-6.49087042 7.01987239 -3.44338151 3.75740058 0 0 Z " fill="#84837F" transform="translate(127,153)"/>
<path d="M0 0 C4.86045979 0.45213579 7.53141261 1.53141261 11 5 C12.3125 7.75 12.3125 7.75 13 10 C7.87987342 10 4.83102901 9.55738408 1 6 C1 5.01 1 4.02 1 3 C0.34 2.67 -0.32 2.34 -1 2 C-0.67 1.34 -0.34 0.68 0 0 Z " fill="#A29D99" transform="translate(333,123)"/>
<path d="M0 0 C0.33 0 0.66 0 1 0 C1.2657967 4.68641548 0.51809884 7.84637777 -1.375 12.125 C-2.03628906 13.64480469 -2.03628906 13.64480469 -2.7109375 15.1953125 C-3.48426532 16.87788636 -4.29172494 18.54625005 -5.1640625 20.1796875 C-6.20866304 22.12053175 -6.20866304 22.12053175 -6 25 C-8.42104782 29.30408501 -10.571587 31.7857935 -15 34 C-13.3753407 29.66757521 -11.30215747 25.60678338 -9.1875 21.5 C-5.61949213 14.48746723 -2.6421303 7.41828891 0 0 Z " fill="#353535" transform="translate(392,296)"/>
<path d="M0 0 C0.93423645 3.01031744 1.04449911 3.86650268 0 7 C-0.45375 7.433125 -0.9075 7.86625 -1.375 8.3125 C-4.47473818 11.53145887 -6.16209823 15.64291079 -7 20 C-7.66 20 -8.32 20 -9 20 C-10.1233244 16.71643636 -10.24383906 14.61141735 -8.953125 11.375 C-7.69157319 8.88024586 -6.38639349 6.42738791 -5 4 C-4.01 4 -3.02 4 -2 4 C-1.34 2.68 -0.68 1.36 0 0 Z " fill="#C6C2BC" transform="translate(302,160)"/>
<path d="M0 0 C0.33 0.66 0.66 1.32 1 2 C-0.55652994 4.2335449 -2.11990621 6.46173918 -3.6875 8.6875 C-4.12255859 9.31333984 -4.55761719 9.93917969 -5.00585938 10.58398438 C-7.72913927 14.43692112 -10.5650374 17.76308929 -14 21 C-14 19.68 -14 18.36 -14 17 C-13.34 17 -12.68 17 -12 17 C-11.92652344 16.29359375 -11.85304688 15.5871875 -11.77734375 14.859375 C-10.78024185 11.19164338 -9.00686437 9.14412741 -6.5625 6.25 C-5.75941406 5.28578125 -4.95632813 4.3215625 -4.12890625 3.328125 C-2 1 -2 1 0 0 Z " fill="#343435" transform="translate(385,331)"/>
<path d="M0 0 C1.11375 0.3403125 1.11375 0.3403125 2.25 0.6875 C1.31409496 1.7930189 0.37620142 2.89685453 -0.5625 4 C-1.08457031 4.61488281 -1.60664063 5.22976562 -2.14453125 5.86328125 C-3.75 7.6875 -3.75 7.6875 -5.44921875 9.23046875 C-7.08298801 10.73495402 -7.08298801 10.73495402 -6.75 13.6875 C-8.07 14.0175 -9.39 14.3475 -10.75 14.6875 C-10.75 14.0275 -10.75 13.3675 -10.75 12.6875 C-11.41 12.3575 -12.07 12.0275 -12.75 11.6875 C-11.821875 10.57375 -11.821875 10.57375 -10.875 9.4375 C-8.75729849 6.90186809 -8.75729849 6.90186809 -7.75 4.5625 C-5.87652376 1.04973205 -4.01188993 -0.45589658 0 0 Z " fill="#A09D98" transform="translate(135.75,148.3125)"/>
<path d="M0 0 C2.63116393 2.52591737 5.05224341 5.18247655 7.4375 7.9375 C10.17762368 11.09690985 12.9983981 14.08935573 16 17 C10.99081256 15.52670958 8.48192278 12.72484762 5 9 C4.01 9.33 3.02 9.66 2 10 C3.52708963 13.43595166 5.59927045 16.11912454 8 19 C4.78956118 17.61811547 2.95063635 16.07578097 0.75 13.375 C0.22921875 12.74335938 -0.2915625 12.11171875 -0.828125 11.4609375 C-1.21484375 10.97882813 -1.6015625 10.49671875 -2 10 C-1.34 10 -0.68 10 0 10 C0 6.7 0 3.4 0 0 Z " fill="#252525" transform="translate(132,348)"/>
<path d="M0 0 C-3.32307692 4.8 -3.32307692 4.8 -6.75 5.8125 C-7.4925 5.874375 -8.235 5.93625 -9 6 C-9.33 6.99 -9.66 7.98 -10 9 C-12.475 8.01 -12.475 8.01 -15 7 C-14.4375 4.6875 -14.4375 4.6875 -13 2 C-8.30005068 -0.71150922 -5.25068159 -1.40871945 0 0 Z " fill="#B7B2AC" transform="translate(174,120)"/>
<path d="M0 0 C2.64 1.32 5.28 2.64 8 4 C7.01 4.33 6.02 4.66 5 5 C5.33 5.66 5.66 6.32 6 7 C6.35169068 8.32860925 6.68770276 9.66158328 7 11 C6.01 11.495 6.01 11.495 5 12 C2.3984375 10.56640625 2.3984375 10.56640625 -0.625 8.5625 C-1.62789063 7.90378906 -2.63078125 7.24507813 -3.6640625 6.56640625 C-4.43492187 6.04949219 -5.20578125 5.53257813 -6 5 C-4.68 4.67 -3.36 4.34 -2 4 C-2 4.66 -2 5.32 -2 6 C-0.35 5.67 1.3 5.34 3 5 C2.34 4.67 1.68 4.34 1 4 C1.33 3.34 1.66 2.68 2 2 C1.34 2 0.68 2 0 2 C0 1.34 0 0.68 0 0 Z " fill="#797573" transform="translate(328,118)"/>
<path d="M0 0 C1.6852084 4.07679159 0.16939007 6.83075593 -1.4375 10.75 C-1.91058594 11.92046875 -2.38367188 13.0909375 -2.87109375 14.296875 C-3.24363281 15.18890625 -3.61617187 16.0809375 -4 17 C-4.66 16.34 -5.32 15.68 -6 15 C-5.69024203 8.70158799 -4.57001124 4.57001124 0 0 Z " fill="#A5A5A0" transform="translate(150,290)"/>
<path d="M0 0 C0.66 0 1.32 0 2 0 C-1.07517084 11.52164009 -1.07517084 11.52164009 -3 17 C-3.66 17 -4.32 17 -5 17 C-5.31492699 11.0163872 -4.77085416 7.3285657 -2 2 C-1.34 1.34 -0.68 0.68 0 0 Z " fill="#AAA8A4" transform="translate(161,255)"/>
<path d="M0 0 C0.66 0 1.32 0 2 0 C2.6875 1.75 2.6875 1.75 3 4 C2.03126968 5.35622245 1.02323436 6.68441297 0 8 C-0.8329456 10.07626927 -1.55601823 12.16776172 -2.25390625 14.29296875 C-3 16 -3 16 -5 17 C-5.66 16.67 -6.32 16.34 -7 16 C-6.721635 12.10289006 -6.0578836 9.76459762 -3.5 6.875 C-1.28582109 4.32869425 -0.37434642 3.24433565 0 0 Z " fill="#C0BCB7" transform="translate(284,192)"/>
<path d="M0 0 C2.625 0.375 2.625 0.375 5 1 C4.67 3.31 4.34 5.62 4 8 C1.625 9.0625 1.625 9.0625 -1 10 C-1.66 9.67 -2.32 9.34 -3 9 C-2.25 2.25 -2.25 2.25 0 0 Z " fill="#747370" transform="translate(106,187)"/>
<path d="M0 0 C3.82097239 0.53069061 6.06171403 1.49701566 9 4 C3 8 3 8 0.51953125 7.5390625 C-0.37378906 7.23742187 -1.26710938 6.93578125 -2.1875 6.625 C-3.08855469 6.32851562 -3.98960937 6.03203125 -4.91796875 5.7265625 C-5.94857422 5.36691406 -5.94857422 5.36691406 -7 5 C-4.50935112 4.31292445 -2.62113708 4 0 4 C0 2.68 0 1.36 0 0 Z " fill="#918C88" transform="translate(309,109)"/>
<path d="M0 0 C1.32 0.66 2.64 1.32 4 2 C0.91702588 3.62568217 -2.16644189 5.25042584 -5.25 6.875 C-6.55904297 7.56529297 -6.55904297 7.56529297 -7.89453125 8.26953125 C-9.16103516 8.93662109 -9.16103516 8.93662109 -10.453125 9.6171875 C-11.61569824 10.22989502 -11.61569824 10.22989502 -12.80175781 10.85498047 C-14.85731347 11.92567749 -16.923735 12.97013947 -19 14 C-18.1875 11.5625 -18.1875 11.5625 -17 9 C-16.01 8.67 -15.02 8.34 -14 8 C-13.34 8.33 -12.68 8.66 -12 9 C-11.67 8.01 -11.34 7.02 -11 6 C-9.02 5.67 -7.04 5.34 -5 5 C-4.67 4.01 -4.34 3.02 -4 2 C-3.01 2.33 -2.02 2.66 -1 3 C-0.67 2.01 -0.34 1.02 0 0 Z " fill="#7F7A75" transform="translate(182,116)"/>
<path d="M0 0 C0.66 0 1.32 0 2 0 C1.125 5.875 1.125 5.875 0 7 C-2.66426685 7.16003488 -5.30560428 7.25942889 -7.97265625 7.31640625 C-9.16912025 7.3475779 -9.16912025 7.3475779 -10.38975525 7.37937927 C-12.94724611 7.44496158 -15.5048428 7.50379967 -18.0625 7.5625 C-19.79232882 7.60567699 -21.52214679 7.64929101 -23.25195312 7.69335938 C-27.5011926 7.80065172 -31.7505389 7.90189426 -36 8 C-36.33 8.66 -36.66 9.32 -37 10 C-36.625 8.0625 -36.625 8.0625 -36 6 C-32.98786971 4.49393485 -29.88717378 4.87839669 -26.5859375 4.90234375 C-25.49147812 4.90446617 -25.49147812 4.90446617 -24.37490845 4.90663147 C-22.04156415 4.91223469 -19.70831536 4.92478765 -17.375 4.9375 C-15.79427222 4.94251459 -14.21354293 4.94707757 -12.6328125 4.95117188 C-8.75517146 4.96220516 -4.87760193 4.97947189 -1 5 C-0.67 3.35 -0.34 1.7 0 0 Z " fill="#4C4B49" transform="translate(217,300)"/>
<path d="M0 0 C1.10802511 3.32407533 0.92524151 3.97699033 -0.14453125 7.16015625 C-0.54188477 8.3502832 -0.54188477 8.3502832 -0.94726562 9.56445312 C-1.23279297 10.38880859 -1.51832031 11.21316406 -1.8125 12.0625 C-2.08642578 12.89072266 -2.36035156 13.71894531 -2.64257812 14.57226562 C-4.73287408 20.73287408 -4.73287408 20.73287408 -7 23 C-7.042721 21.33388095 -7.04063832 19.66617115 -7 18 C-6.67 17.67 -6.34 17.34 -6 17 C-5.70321119 15.27509871 -5.43764046 13.5447811 -5.1875 11.8125 C-4.34465294 6.8712287 -3.13794233 3.87012887 0 0 Z " fill="#2E2E2E" transform="translate(402,291)"/>
<path d="M0 0 C4.10899581 1.12795963 8.07561214 2.33510818 12 4 C11.67 4.99 11.34 5.98 11 7 C7.20720018 8.26426661 5.65934648 7.40145184 2 6 C1.34 5.67 0.68 5.34 0 5 C0 3.35 0 1.7 0 0 Z " fill="#C9C1B9" transform="translate(298,106)"/>
<path d="M0 0 C-0.57065878 6.41991126 -2.67344909 12.01589463 -5 18 C-5.66 17.67 -6.32 17.34 -7 17 C-4.93939394 0 -4.93939394 0 0 0 Z " fill="#CAC8C2" transform="translate(169,235)"/>
<path d="M0 0 C1.27617187 0.00483398 1.27617187 0.00483398 2.578125 0.00976562 C3.46757812 0.01814453 4.35703125 0.02652344 5.2734375 0.03515625 C6.170625 0.03966797 7.0678125 0.04417969 7.9921875 0.04882812 C10.21100398 0.06063034 12.42968768 0.0770947 14.6484375 0.09765625 C14.9784375 0.75765625 15.3084375 1.41765625 15.6484375 2.09765625 C14.47925781 2.14664063 13.31007812 2.195625 12.10546875 2.24609375 C10.55726946 2.32115796 9.00909349 2.3967042 7.4609375 2.47265625 C6.69201172 2.50359375 5.92308594 2.53453125 5.13085938 2.56640625 C0.90946039 2.78381736 -2.49228578 3.19508697 -6.3515625 5.09765625 C-6.3515625 3.77765625 -6.3515625 2.45765625 -6.3515625 1.09765625 C-4.00303722 -0.07660639 -2.61382185 -0.01742548 0 0 Z " fill="#A09C97" transform="translate(201.3515625,155.90234375)"/>
<path d="M0 0 C-3.84718352 1.38498607 -7.02025474 0.57498608 -11 0 C-13.34069575 -0.13902995 -15.68365662 -0.24349154 -18.02734375 -0.31640625 C-19.31318359 -0.35830078 -20.59902344 -0.40019531 -21.92382812 -0.44335938 C-23.26171625 -0.483157 -24.59960691 -0.52286951 -25.9375 -0.5625 C-27.30274562 -0.60576654 -28.66798018 -0.64938321 -30.03320312 -0.69335938 C-33.35537652 -0.79901153 -36.67761946 -0.90111395 -40 -1 C-40 -1.33 -40 -1.66 -40 -2 C-35.65860566 -2.16800236 -31.31701785 -2.32851981 -26.97509766 -2.48217773 C-25.49878539 -2.53547011 -24.02254481 -2.59078903 -22.54638672 -2.64819336 C-20.42170666 -2.73046212 -18.29687349 -2.80538335 -16.171875 -2.87890625 C-14.2552002 -2.94960327 -14.2552002 -2.94960327 -12.29980469 -3.02172852 C-7.64241311 -2.99106058 -4.27057384 -1.77940576 0 0 Z " fill="#665F5A" transform="translate(276,105)"/>
<path d="M0 0 C0.33 0 0.66 0 1 0 C1.60758182 27.8812545 1.60758182 27.8812545 -2.57421875 32.8828125 C-3.04472656 33.25148438 -3.51523437 33.62015625 -4 34 C-3.50116382 29.59361375 -2.8722252 25.28560774 -2 20.9375 C-0.69095802 14.00153133 -0.36098524 7.0392122 0 0 Z " fill="#202020" transform="translate(399,254)"/>
<path d="M0 0 C0.33 0.66 0.66 1.32 1 2 C1.66 2 2.32 2 3 2 C3.41176754 5.60296594 3.1535853 6.78402067 1 9.8125 C0.34 10.534375 -0.32 11.25625 -1 12 C-1 11.01 -1 10.02 -1 9 C-1.66 9 -2.32 9 -3 9 C-3 9.99 -3 10.98 -3 12 C-3.66 12 -4.32 12 -5 12 C-3.68938409 7.76570244 -2.05643741 3.92592596 0 0 Z " fill="#A8A6A2" transform="translate(276,206)"/>
<path d="M0 0 C0 0.33 0 0.66 0 1 C-2.72838435 1.81520635 -5.45764417 2.62724843 -8.1875 3.4375 C-9.34088867 3.78264648 -9.34088867 3.78264648 -10.51757812 4.13476562 C-14.32525141 5.26235986 -18.08151762 6.3168177 -22 7 C-21.34 6.67 -20.68 6.34 -20 6 C-20 5.34 -20 4.68 -20 4 C-18.35 4 -16.7 4 -15 4 C-14.67 3.01 -14.34 2.02 -14 1 C-12.0625 0.375 -12.0625 0.375 -10 0 C-6.7169902 -1.6415049 -3.57454967 -0.51888624 0 0 Z " fill="#837D78" transform="translate(216,107)"/>
<path d="M0 0 C0.33 0 0.66 0 1 0 C0.85892253 1.45880109 0.71197585 2.91703551 0.5625 4.375 C0.48128906 5.18710938 0.40007812 5.99921875 0.31640625 6.8359375 C0 9 0 9 -1 11 C-3.0625 11.625 -3.0625 11.625 -5 12 C-4.58720176 6.73682241 -3.70474339 3.82051662 0 0 Z " fill="#BEBCB7" transform="translate(173,221)"/>
<path d="M0 0 C0.99 0.33 1.98 0.66 3 1 C3 1.99 3 2.98 3 4 C2.01 4.495 2.01 4.495 1 5 C-0.24174796 6.9001177 -0.24174796 6.9001177 -1 9 C-0.67 9.66 -0.34 10.32 0 11 C-0.66 11 -1.32 11 -2 11 C-2.33 11.66 -2.66 12.32 -3 13 C-3.66 13 -4.32 13 -5 13 C-4.48474397 7.71862571 -2.74522883 4.42778844 0 0 Z " fill="#7B7A77" transform="translate(113,172)"/>
<path d="M0 0 C2 3 2 3 1.75 6.4375 C1.13121575 9.3767252 0.52580857 11.45698571 -1 14 C-1.66 14 -2.32 14 -3 14 C-2.58846263 9.02906176 -2.20399168 4.55491614 0 0 Z " fill="#989995" transform="translate(138,318)"/>
<path d="M0 0 C1 3 1 3 0.25 5.5 C-0.99739104 7.99478208 -1.74205631 9.38718308 -4 11 C-7.1875 11.6875 -7.1875 11.6875 -10 12 C-9.61328125 11.55269531 -9.2265625 11.10539062 -8.828125 10.64453125 C-5.81609925 7.1478974 -2.85678969 3.62592537 0 0 Z " fill="#41413F" transform="translate(364,346)"/>
<path d="M0 0 C0.99 0.33 1.98 0.66 3 1 C0.03 5.29 -2.94 9.58 -6 14 C-6.66 13.34 -7.32 12.68 -8 12 C-7.67 11.34 -7.34 10.68 -7 10 C-6.34 10 -5.68 10 -5 10 C-5.33 9.01 -5.66 8.02 -6 7 C-4.68 6.67 -3.36 6.34 -2 6 C-2.33 4.68 -2.66 3.36 -3 2 C-2.01 1.34 -1.02 0.68 0 0 Z " fill="#62615E" transform="translate(126,162)"/>
<path d="M0 0 C0.66 0 1.32 0 2 0 C2 3.66666667 2 7.33333333 2 11 C1.01 11.66 0.02 12.32 -1 13 C-1 12.34 -1 11.68 -1 11 C-1.99 10.67 -2.98 10.34 -4 10 C-3.67 9.01 -3.34 8.02 -3 7 C-2.34 6.67 -1.68 6.34 -1 6 C-0.34227572 2.97065509 -0.34227572 2.97065509 0 0 Z " fill="#BBB8B2" transform="translate(259,242)"/>
<path d="M0 0 C3.32527158 1.10842386 3.71119458 1.64603321 5.5625 4.4375 C6.96589896 6.53166854 8.20558012 8.20558012 10 10 C9.625 12.125 9.625 12.125 9 14 C7.4911599 12.23669281 5.9931702 10.46409603 4.5 8.6875 C3.6646875 7.70136719 2.829375 6.71523437 1.96875 5.69921875 C0 3 0 3 0 0 Z " fill="#645F5D" transform="translate(364,155)"/>
<path d="M0 0 C0.66 0 1.32 0 2 0 C3.5625 2.8125 3.5625 2.8125 5 6 C4.67 6.99 4.34 7.98 4 9 C1.33333333 7.66666667 -1.33333333 6.33333333 -4 5 C-1.125 1.125 -1.125 1.125 0 0 Z " fill="#989090" transform="translate(350,134)"/>
<path d="M0 0 C0.99 0.33 1.98 0.66 3 1 C0.03 4.63 -2.94 8.26 -6 12 C-6.66 11.67 -7.32 11.34 -8 11 C-6.63629701 8.00779732 -5.05091917 5.70973471 -2.875 3.25 C-2.33617187 2.63640625 -1.79734375 2.0228125 -1.2421875 1.390625 C-0.62730469 0.70226562 -0.62730469 0.70226562 0 0 Z " fill="#777973" transform="translate(136,150)"/>
<path d="M0 0 C0.68359375 1.640625 0.68359375 1.640625 1 4 C-0.21484375 6.796875 -0.21484375 6.796875 -1.9375 9.75 C-2.50339844 10.73484375 -3.06929688 11.7196875 -3.65234375 12.734375 C-4.09707031 13.48203125 -4.54179687 14.2296875 -5 15 C-5.33 14.34 -5.66 13.68 -6 13 C-5.690625 12.46375 -5.38125 11.9275 -5.0625 11.375 C-3.49200627 7.86448461 -3.87243072 4.82707839 -4 1 C-2.68 0.67 -1.36 0.34 0 0 Z " fill="#A09C97" transform="translate(325,167)"/>
<path d="M0 0 C0.33 0 0.66 0 1 0 C1.37810444 5.04139251 0.54806876 9.60641642 -2 14 C-2.99 14.33 -3.98 14.66 -5 15 C-4.67 12.69 -4.34 10.38 -4 8 C-3.34 8 -2.68 8 -2 8 C-1.855625 6.865625 -1.71125 5.73125 -1.5625 4.5625 C-1 1 -1 1 0 0 Z " fill="#BFBEBA" transform="translate(155,274)"/>
<path d="M0 0 C5.42039575 -0.40652968 9.07015675 0.96006486 14 3 C13.67 3.99 13.34 4.98 13 6 C11.01796291 5.38416344 9.0394228 4.75706166 7.0625 4.125 C5.96035156 3.77695312 4.85820312 3.42890625 3.72265625 3.0703125 C1 2 1 2 0 0 Z " fill="#4E4E4E" transform="translate(184,389)"/>
<path d="M0 0 C4.02992782 0.55312735 8.02022924 1.1558062 12 2 C10.68 2.33 9.36 2.66 8 3 C8.33 3.99 8.66 4.98 9 6 C8.01 6.495 8.01 6.495 7 7 C4.875 6.0625 4.875 6.0625 3 5 C3 3.68 3 2.36 3 1 C2.01 0.67 1.02 0.34 0 0 Z " fill="#B0A9A2" transform="translate(277,99)"/>
<path d="M0 0 C0.66 0.66 1.32 1.32 2 2 C1.625 4.625 1.625 4.625 1 7 C0.34 7 -0.32 7 -1 7 C-1.33 8.98 -1.66 10.96 -2 13 C-2.33 13 -2.66 13 -3 13 C-3.4726477 4.80743982 -3.4726477 4.80743982 -1.5 1.4375 C-0.7575 0.7259375 -0.7575 0.7259375 0 0 Z " fill="#C2BEB7" transform="translate(189,174)"/>
<path d="M0 0 C4.35486002 5.22583202 6.31408515 8.09012671 6 15 C3.75848118 12.75848118 3.03698675 10.9932888 1.875 8.0625 C1.52179688 7.18722656 1.16859375 6.31195313 0.8046875 5.41015625 C0 3 0 3 0 0 Z M6 6 C6.99 6.33 7.98 6.66 9 7 C8.01 7.33 7.02 7.66 6 8 C6 7.34 6 6.68 6 6 Z " fill="#4C4B4A" transform="translate(278,297)"/>
<path d="M0 0 C0.33 0 0.66 0 1 0 C1.21278058 4.46839215 0.59138085 7.82262526 -1 12 C-1.99 12 -2.98 12 -4 12 C-3.27272727 3.27272727 -3.27272727 3.27272727 0 0 Z " fill="#444444" transform="translate(396,302)"/>
<path d="M0 0 C2.35964273 0.40683495 3.85934088 0.89814339 5.8125 2.3125 C7 4 7 4 6.6875 6.1875 C6.460625 6.785625 6.23375 7.38375 6 8 C3 7 3 7 1 5 C0.375 2.375 0.375 2.375 0 0 Z " fill="#999391" transform="translate(363,150)"/>
<path d="M0 0 C0.66 0.99 1.32 1.98 2 3 C1.25 4.9375 1.25 4.9375 0 7 C-2.125 7.75 -2.125 7.75 -4 8 C-4.33 7.01 -4.66 6.02 -5 5 C-3.35 3.35 -1.7 1.7 0 0 Z " fill="#989792" transform="translate(155,130)"/>
<path d="M0 0 C3.9492568 0.55105909 7.34920174 1.38935371 11 3 C10.67 3.99 10.34 4.98 10 6 C5.56909529 4.79157144 3.01887244 3.48331435 0 0 Z " fill="#494949" transform="translate(172,383)"/>
<path d="M0 0 C1 4 1 4 1 6 C2.32 5.67 3.64 5.34 5 5 C5.33 5.66 5.66 6.32 6 7 C5.2575 7.28875 4.515 7.5775 3.75 7.875 C1.4551718 8.81379336 -0.78233105 9.89116553 -3 11 C-2.01 7.37 -1.02 3.74 0 0 Z " fill="#72716D" transform="translate(150,282)"/>
<path d="M0 0 C0.99 0 1.98 0 3 0 C3 0.66 3 1.32 3 2 C3.66 2 4.32 2 5 2 C5.33 3.65 5.66 5.3 6 7 C4.35 6.67 2.7 6.34 1 6 C1 5.34 1 4.68 1 4 C0.01 4 -0.98 4 -2 4 C-2 3.34 -2 2.68 -2 2 C-1.34 2 -0.68 2 0 2 C0 1.34 0 0.68 0 0 Z " fill="#BAB3AF" transform="translate(325,118)"/>
<path d="M0 0 C2.62962963 3.94444444 2.62962963 3.94444444 3 7 C2.0625 9.25 2.0625 9.25 1 11 C0.67 10.01 0.34 9.02 0 8 C-0.99 8.99 -1.98 9.98 -3 11 C-2.01 7.37 -1.02 3.74 0 0 Z " fill="#A3A19B" transform="translate(173,214)"/>
<path d="M0 0 C0.33 0.66 0.66 1.32 1 2 C1.66 2 2.32 2 3 2 C3 2.99 3 3.98 3 5 C-0.3 4.67 -3.6 4.34 -7 4 C-7 3.34 -7 2.68 -7 2 C-4.35261084 0.5393715 -3.10551666 0 0 0 Z " fill="#D2CBC4" transform="translate(193,108)"/>
<path d="M0 0 C1.65 0 3.3 0 5 0 C4.625 2.4375 4.625 2.4375 4 5 C3.01 5.495 3.01 5.495 2 6 C1.67 5.34 1.34 4.68 1 4 C0.01 4.99 -0.98 5.98 -2 7 C-1.34 4.69 -0.68 2.38 0 0 Z " fill="#A09E99" transform="translate(167,232)"/>
<path d="M0 0 C0.66 0.33 1.32 0.66 2 1 C1.57847656 1.39832031 1.15695313 1.79664063 0.72265625 2.20703125 C0.17480469 2.73683594 -0.37304688 3.26664063 -0.9375 3.8125 C-1.48277344 4.33457031 -2.02804688 4.85664063 -2.58984375 5.39453125 C-4.23519092 7.05812198 -4.23519092 7.05812198 -5 10 C-5.99 10.33 -6.98 10.66 -8 11 C-6.68206814 5.33289301 -4.51290803 3.33562767 0 0 Z " fill="#BBB8B2" transform="translate(155,128)"/>
<path d="M0 0 C2 2 2 2 2 5 C-1.91211733 3.84414715 -4.8745041 2.64465038 -8 0 C-4.71303767 -0.79953138 -3.28976808 -1.09658936 0 0 Z " fill="#7D7874" transform="translate(320,117)"/>
<path d="M0 0 C1 3 1 3 0 6 C-1.65 5.67 -3.3 5.34 -5 5 C-4.67 4.01 -4.34 3.02 -4 2 C-4.66 1.67 -5.32 1.34 -6 1 C-4 0 -4 0 0 0 Z " fill="#BBB7AE" transform="translate(181,113)"/>
<path d="M0 0 C0.66 0.33 1.32 0.66 2 1 C2 1.66 2 2.32 2 3 C1.34 3 0.68 3 0 3 C-0.2475 3.556875 -0.495 4.11375 -0.75 4.6875 C-2.21606015 7.39971127 -4.02989471 9.63587365 -6 12 C-6.66 11.67 -7.32 11.34 -8 11 C-5.36 7.37 -2.72 3.74 0 0 Z " fill="#3A3A3A" transform="translate(375,332)"/>
<path d="M0 0 C0.99 0.33 1.98 0.66 3 1 C0.64722731 3.72426311 -1.62496331 4.8141763 -5 6 C-5 6.66 -5 7.32 -5 8 C-5.66 8 -6.32 8 -7 8 C-6.875 6.25 -6.875 6.25 -6 4 C-3.125 1.6875 -3.125 1.6875 0 0 Z " fill="#B2AFA7" transform="translate(143,139)"/>
<path d="M0 0 C0.99 0.495 0.99 0.495 2 1 C1.01 1.495 1.01 1.495 0 2 C0 1.34 0 0.68 0 0 Z M-2 2 C-1.34 2.33 -0.68 2.66 0 3 C-2.41556126 6.19199167 -4.68003538 8.74716687 -8 11 C-6.68775452 7.06326356 -5.08089673 4.77280706 -2 2 Z " fill="#3E3E3E" transform="translate(385,319)"/>
<path d="M0 0 C0.66 0.99 1.32 1.98 2 3 C0.35 4.65 -1.3 6.3 -3 8 C-3.99 7.67 -4.98 7.34 -6 7 C-4.71937515 5.2925002 -3.38232443 3.62626404 -2 2 C-1.34 2 -0.68 2 0 2 C0 1.34 0 0.68 0 0 Z " fill="#7D7C77" transform="translate(150,136)"/>
<path d="M0 0 C3.15330554 0.60694155 5.18888867 1.6416665 7.75 3.5625 C8.67039063 4.24505859 8.67039063 4.24505859 9.609375 4.94140625 C10.29773438 5.46541016 10.29773438 5.46541016 11 6 C10.01 6.66 9.02 7.32 8 8 C6.66372225 6.85760183 5.33104612 5.71098945 4 4.5625 C3.2575 3.92441406 2.515 3.28632813 1.75 2.62890625 C1.1725 2.09136719 0.595 1.55382812 0 1 C0 0.67 0 0.34 0 0 Z " fill="#3D3D3E" transform="translate(153,370)"/>
<path d="M0 0 C3 3.625 3 3.625 3 7 C2.34 7 1.68 7 1 7 C1 7.66 1 8.32 1 9 C0.34 9 -0.32 9 -1 9 C-1.33 7.02 -1.66 5.04 -2 3 C-1.34 3 -0.68 3 0 3 C0 2.01 0 1.02 0 0 Z " fill="#575655" transform="translate(324,303)"/>
<path d="M0 0 C2 3 2 3 2 7 C1.67 7.99 1.34 8.98 1 10 C-0.32 10.33 -1.64 10.66 -3 11 C-2.01 7.37 -1.02 3.74 0 0 Z " fill="#95948F" transform="translate(162,246)"/>
<path d="M0 0 C0.66 0.33 1.32 0.66 2 1 C0.95125002 3.62187494 0.35068687 4.79371361 -2.125 6.25 C-2.74375 6.4975 -3.3625 6.745 -4 7 C-4 6.34 -4 5.68 -4 5 C-4.66 4.67 -5.32 4.34 -6 4 C-4.02 2.68 -2.04 1.36 0 0 Z " fill="#989893" transform="translate(129,156)"/>
<path d="M0 0 C4.99275057 1.27721526 7.57611908 3.17330957 11 7 C7.41584854 7 6.58796261 6.21108216 3.8125 4.0625 C3.09707031 3.51722656 2.38164062 2.97195312 1.64453125 2.41015625 C1.10183594 1.94480469 0.55914062 1.47945312 0 1 C0 0.67 0 0.34 0 0 Z " fill="#5D5A57" transform="translate(335,130)"/>
<path d="M0 0 C1.45823212 -0.0270043 2.91660675 -0.04639787 4.375 -0.0625 C5.18710937 -0.07410156 5.99921875 -0.08570312 6.8359375 -0.09765625 C9 0 9 0 11 1 C11 1.66 11 2.32 11 3 C11.99 3.33 12.98 3.66 14 4 C12 5 12 5 9.1796875 4.22265625 C8.08914063 3.83980469 6.99859375 3.45695312 5.875 3.0625 C4.77929688 2.68222656 3.68359375 2.30195312 2.5546875 1.91015625 C1.71164062 1.60980469 0.86859375 1.30945313 0 1 C0 0.67 0 0.34 0 0 Z " fill="#7D7772" transform="translate(287,108)"/>
<path d="M0 0 C-2.71182212 2.60334924 -3.89133813 2.99456691 -7.75 3.1875 C-8.8225 3.125625 -9.895 3.06375 -11 3 C-7.17860188 -0.1390056 -4.83859894 -1.61286631 0 0 Z " fill="#444446" transform="translate(327,382)"/>
<path d="M0 0 C0.22429687 0.91265625 0.22429687 0.91265625 0.453125 1.84375 C0.84921214 3.405465 1.28703638 4.95678794 1.75 6.5 C2 9 2 9 0.5625 11.3125 C0.046875 11.869375 -0.46875 12.42625 -1 13 C-1 9.98146205 -0.85049285 7.22918921 -0.5 4.25 C-0.4071875 3.45078125 -0.314375 2.6515625 -0.21875 1.828125 C-0.1465625 1.22484375 -0.074375 0.6215625 0 0 Z " fill="#B1B0AB" transform="translate(164,240)"/>
<path d="M0 0 C1.60080151 4.00200378 0.29279692 7.04556236 -1 11 C-1.66 10.34 -2.32 9.68 -3 9 C-2.6442194 5.62008426 -1.64284201 2.95711562 0 0 Z " fill="#D1CEC8" transform="translate(177,208)"/>
<path d="M0 0 C1.67542976 0.28604898 3.34385343 0.61781233 5 1 C5 1.66 5 2.32 5 3 C4.21625 3.309375 3.4325 3.61875 2.625 3.9375 C0.07669872 4.92875038 0.07669872 4.92875038 -2 6 C-1.125 1.125 -1.125 1.125 0 0 Z " fill="#7C7B77" transform="translate(106,187)"/>
<path d="M0 0 C-0.33 1.32 -0.66 2.64 -1 4 C-2.65 4 -4.3 4 -6 4 C-6 3.01 -6 2.02 -6 1 C-6.99 0.67 -7.98 0.34 -9 0 C-5.52176885 -1.15941038 -3.54104422 -0.70820884 0 0 Z " fill="#B9B3AC" transform="translate(199,107)"/>
<path d="M0 0 C6.625 -0.25 6.625 -0.25 10 2 C7.36 2.66 4.72 3.32 2 4 C2 3.01 2 2.02 2 1 C1.34 0.67 0.68 0.34 0 0 Z " fill="#DBD5CF" transform="translate(270,99)"/>
<path d="M0 0 C2.31 0 4.62 0 7 0 C5.02 0.99 5.02 0.99 3 2 C3.33 3.32 3.66 4.64 4 6 C2.02 5.34 0.04 4.68 -2 4 C-1.34 2.68 -0.68 1.36 0 0 Z " fill="#B8B2AB" transform="translate(269,98)"/>
<path d="M0 0 C0.99 0 1.98 0 3 0 C2.50168276 3.68754757 1.89932357 5.60490662 -1 8 C-1.125 2.25 -1.125 2.25 0 0 Z " fill="#272727" transform="translate(392,314)"/>
<path d="M0 0 C0.33 0.66 0.66 1.32 1 2 C1.66 2 2.32 2 3 2 C3 3.32 3 4.64 3 6 C2.01 6.33 1.02 6.66 0 7 C-0.66 6.67 -1.32 6.34 -2 6 C-1.34 4.02 -0.68 2.04 0 0 Z " fill="#B1AEA9" transform="translate(276,206)"/>
<path d="M0 0 C0.33 0 0.66 0 1 0 C1 2.97 1 5.94 1 9 C-0.32 9.33 -1.64 9.66 -3 10 C-2.01 6.7 -1.02 3.4 0 0 Z " fill="#AAA8A0" transform="translate(185,180)"/>
<path d="M0 0 C3.96 1.98 3.96 1.98 8 4 C7.01 4.33 6.02 4.66 5 5 C4.67 5.66 4.34 6.32 4 7 C3.01 6.01 2.02 5.02 1 4 C1.33 3.34 1.66 2.68 2 2 C1.34 2 0.68 2 0 2 C0 1.34 0 0.68 0 0 Z " fill="#8B8582" transform="translate(328,118)"/>
<path d="M0 0 C1.32 0.66 2.64 1.32 4 2 C2.71349294 2.69710731 1.42059335 3.38242876 0.125 4.0625 C-0.95394531 4.63677734 -0.95394531 4.63677734 -2.0546875 5.22265625 C-2.69664062 5.47917969 -3.33859375 5.73570313 -4 6 C-4.66 5.67 -5.32 5.34 -6 5 C-5.01 4.01 -4.02 3.02 -3 2 C-2.34 2.33 -1.68 2.66 -1 3 C-0.67 2.01 -0.34 1.02 0 0 Z " fill="#6F6C65" transform="translate(182,116)"/>
<path d="M0 0 C0.99 0.33 1.98 0.66 3 1 C0.69 3.64 -1.62 6.28 -4 9 C-4 5.00095031 -2.27413033 3.19799578 0 0 Z " fill="#292929" transform="translate(368,352)"/>
<path d="M0 0 C1.15518918 0.90484792 2.29885406 1.8244206 3.4375 2.75 C4.07558594 3.26046875 4.71367187 3.7709375 5.37109375 4.296875 C7.18810554 6.19667629 7.60423197 7.43586908 8 10 C3.70397836 8.56799279 2.87091509 5.7324655 0.91015625 1.83203125 C0.60980469 1.22746094 0.30945313 0.62289063 0 0 Z " fill="#464648" transform="translate(125,342)"/>
<path d="M0 0 C0.33 0 0.66 0 1 0 C1.25 7.625 1.25 7.625 -1 11 C-0.979375 10.2575 -0.95875 9.515 -0.9375 8.75 C-0.88266896 6.06173778 -0.88266896 6.06173778 -1.625 3.8125 C-1.74875 3.214375 -1.8725 2.61625 -2 2 C-1.34 1.34 -0.68 0.68 0 0 Z " fill="#C5C1BB" transform="translate(180,197)"/>
<path d="M0 0 C1.65 0.33 3.3 0.66 5 1 C0.25 5.875 0.25 5.875 -2 7 C-1.34 4.69 -0.68 2.38 0 0 Z " fill="#A9A6A0" transform="translate(133,148)"/>
<path d="M0 0 C2.475 0.99 2.475 0.99 5 2 C4.01 2.33 3.02 2.66 2 3 C2 3.66 2 4.32 2 5 C1.34 5 0.68 5 0 5 C-0.33 5.66 -0.66 6.32 -1 7 C-1 6.01 -1 5.02 -1 4 C-1.66 3.67 -2.32 3.34 -3 3 C-2.01 2.01 -1.02 1.02 0 0 Z " fill="#A09993" transform="translate(323,115)"/>
<path d="M0 0 C-1.32 0.33 -2.64 0.66 -4 1 C-3.67 1.99 -3.34 2.98 -3 4 C-4.65 4.33 -6.3 4.66 -8 5 C-7.8125 3.125 -7.8125 3.125 -7 1 C-2.66666667 -1.33333333 -2.66666667 -1.33333333 0 0 Z " fill="#ACA99F" transform="translate(190,109)"/>
<path d="M0 0 C1.26724763 3.80174289 0.4750819 5.3511132 -1 9 C-1.66 9.66 -2.32 10.32 -3 11 C-2.25 3.375 -2.25 3.375 0 0 Z " fill="#313131" transform="translate(398,277)"/>
<path d="M0 0 C1.25541557 3.76624671 0.37061958 5.37188934 -1 9 C-1.66 9 -2.32 9 -3 9 C-2.25 2.25 -2.25 2.25 0 0 Z " fill="#C3C0BC" transform="translate(159,263)"/>
<path d="M0 0 C0.625 1.875 0.625 1.875 1 4 C-1.22189824 6.22189824 -3.08482708 6.92598892 -6 8 C-4.55746343 4.63408134 -2.66735273 2.48952921 0 0 Z " fill="#7D7A75" transform="translate(136,143)"/>
<path d="M0 0 C0.66 0.33 1.32 0.66 2 1 C-0.97 4.96 -0.97 4.96 -4 9 C-4 5.00095031 -2.27413033 3.19799578 0 0 Z " fill="#232323" transform="translate(379,339)"/>
<path d="M0 0 C0.33 0.66 0.66 1.32 1 2 C-0.98 4.97 -0.98 4.97 -3 8 C-4 5 -4 5 -3.1875 2.875 C-2 1 -2 1 0 0 Z " fill="#29292A" transform="translate(385,331)"/>
<path d="M0 0 C0.33 0.66 0.66 1.32 1 2 C0.22265625 3.7265625 0.22265625 3.7265625 -0.9375 5.625 C-1.618125 6.73875 -2.29875 7.8525 -3 9 C-3.89674777 6.48910624 -4.13172674 5.35464891 -3.1875 2.8125 C-2 1 -2 1 0 0 Z " fill="#242425" transform="translate(390,322)"/>
<path d="M0 0 C0.598125 0.226875 1.19625 0.45375 1.8125 0.6875 C1.1628125 1.30625 1.1628125 1.30625 0.5 1.9375 C-1.24588272 3.74804505 -2.71369271 5.65224232 -4.1875 7.6875 C-4.875 5.375 -4.875 5.375 -5.1875 2.6875 C-3.60587179 0.1901923 -2.97595617 -0.4251366 0 0 Z " fill="#52514F" transform="translate(269.1875,281.3125)"/>
<path d="M0 0 C0.66 0 1.32 0 2 0 C2.75 1.75 2.75 1.75 3 4 C1.0625 6.25 1.0625 6.25 -1 8 C-1.66 7.67 -2.32 7.34 -3 7 C-2.01 4.69 -1.02 2.38 0 0 Z " fill="#D3CEC9" transform="translate(284,192)"/>
<path d="M0 0 C0.93423645 3.01031744 1.04449911 3.86650268 0 7 C-1.32 6.67 -2.64 6.34 -4 6 C-4 5.34 -4 4.68 -4 4 C-3.34 4 -2.68 4 -2 4 C-1.34 2.68 -0.68 1.36 0 0 Z " fill="#D8D2CC" transform="translate(302,160)"/>
<path d="M0 0 C1.98 0.66 3.96 1.32 6 2 C2.25 5 2.25 5 0 5 C-0.5625 3.0625 -0.5625 3.0625 -1 1 C-0.67 0.67 -0.34 0.34 0 0 Z " fill="#9B9692" transform="translate(312,110)"/>
<path d="M0 0 C3 0 3 0 6 1 C4.02 2.32 2.04 3.64 0 5 C-0.5625 3.0625 -0.5625 3.0625 -1 1 C-0.67 0.67 -0.34 0.34 0 0 Z " fill="#303032" transform="translate(347,370)"/>
<path d="M0 0 C0.93065133 2.60582371 1.14917407 3.64198224 0.0625 6.25 C-0.4634375 7.11625 -0.4634375 7.11625 -1 8 C-1.66 8 -2.32 8 -3 8 C-1.125 1.125 -1.125 1.125 0 0 Z " fill="#CFCCC5" transform="translate(184,188)"/>
<path d="M0 0 C1.32 0.66 2.64 1.32 4 2 C4 2.66 4 3.32 4 4 C2.35 4.33 0.7 4.66 -1 5 C-1.33 4.01 -1.66 3.02 -2 2 C-1.34 2 -0.68 2 0 2 C0 1.34 0 0.68 0 0 Z " fill="#8D8987" transform="translate(378,168)"/>
<path d="M0 0 C0.99 0 1.98 0 3 0 C3.66 1.32 4.32 2.64 5 4 C4.01 4.495 4.01 4.495 3 5 C0.875 4.0625 0.875 4.0625 -1 3 C-0.67 2.01 -0.34 1.02 0 0 Z " fill="#C5C0BC" transform="translate(160,124)"/>
</svg>
